# Blender v2.78 (sub 0) OBJ File: ''
# www.blender.org
o Tracker
v 29.434999 -10.242100 18.000000
v 43.557098 -11.313700 34.595501
v 41.661400 0.000000 35.972801
v 30.261999 -13.316300 18.000000
v 48.133598 16.000000 31.270500
v 37.986000 18.301901 17.303600
v 37.574001 17.643801 18.000000
v 32.725498 14.774300 18.000000
v 54.605701 0.000000 26.568199
v 40.534302 1.557760 4.815390
v 52.709999 11.313700 27.945499
v 39.470402 0.000000 2.520750
v 43.865299 6.435150 12.000000
v 42.702400 13.030300 12.710900
v 41.506901 -15.107300 15.829200
v 52.709999 -11.313700 27.945499
v 40.368000 -16.140699 16.306200
v 42.526100 -14.030000 15.000000
v 42.702400 -13.030300 12.710900
v 26.679600 0.000000 18.000000
v 41.506901 15.107300 15.829200
v 40.368000 16.140699 16.306200
v 42.526100 14.030000 15.000000
v 48.133598 -16.000000 31.270500
v 37.986000 -18.301901 17.303600
v 29.434999 10.242100 18.000000
v 43.557098 11.313700 34.595501
v 30.261999 13.316300 18.000000
v 43.865299 -6.435150 12.000000
v 40.534302 -1.557760 4.815390
v -36.153000 39.991402 27.945499
v -37.923199 33.684898 31.270500
v -27.302799 47.289902 26.568199
v -20.830700 36.079800 35.972801
v -31.576500 32.064701 34.595501
v -21.616199 34.324902 4.815380
v -19.735201 34.182400 2.520740
v -27.505699 34.770901 12.000000
v -32.635799 30.466200 12.710900
v -24.511700 34.544201 8.347670
v -10.210400 49.684898 31.270500
v -3.507010 41.361900 18.000000
v -3.143100 42.047798 17.303600
v -3.567850 35.728199 18.000000
v -34.162201 26.889400 16.306200
v -34.788700 23.995899 17.224199
v -34.842899 23.745899 17.303600
v -33.413399 29.813700 15.000000
v -33.521500 29.450899 15.211700
v -33.836800 28.392401 15.829200
v -7.670170 43.499699 15.829200
v -7.834390 43.538898 15.734800
v -34.067001 23.718100 18.000000
v -29.157600 20.954000 18.000000
v -16.009600 22.392700 18.000000
v -13.339800 23.105200 18.000000
v -3.598770 32.865799 18.000000
v -11.980600 43.378399 34.595501
v -11.387900 25.061100 18.000000
v -16.359699 41.206001 12.000000
v -16.557100 51.305099 27.945499
v -10.066600 43.496498 12.710900
v -18.918100 35.882599 4.815390
v -19.735201 34.182400 2.520750
v -26.663300 19.549500 18.000000
v -8.744520 43.755901 15.211700
v -9.112740 43.843700 15.000000
v -10.210400 -49.684898 31.270500
v -7.670170 -43.499699 15.829200
v -3.143100 -42.047798 17.303600
v -7.834390 -43.538898 15.734800
v -11.980600 -43.378399 34.595501
v -20.830700 -36.079800 35.972801
v -27.302799 -47.289902 26.568199
v -18.918100 -35.882599 4.815410
v -16.557100 -51.305099 27.945499
v -19.735201 -34.182400 2.520750
v -16.359699 -41.206001 12.000000
v -10.066600 -43.496498 12.710900
v -26.663300 -19.549500 18.000000
v -31.576500 -32.064701 34.595501
v -16.009600 -22.392700 18.000000
v -3.507010 -41.361900 18.000000
v -3.567850 -35.728199 18.000000
v -34.067001 -23.718100 18.000000
v -37.923199 -33.684898 31.270500
v -29.157600 -20.954000 18.000000
v -34.842899 -23.745899 17.303600
v -36.153000 -39.991402 27.945499
v -33.521500 -29.450899 15.211700
v -33.413399 -29.813700 15.000000
v -33.836800 -28.392401 15.829200
v -34.162201 -26.889400 16.306200
v -32.635799 -30.466200 12.710900
v -11.387900 -25.061100 18.000000
v -13.339800 -23.105200 18.000000
v -8.744520 -43.755901 15.211700
v -9.112740 -43.843700 15.000000
v -27.505699 -34.770901 12.000000
v -24.511700 -34.544201 8.347670
v -21.616199 -34.324902 4.815410
v -3.598770 -32.865799 18.000000
v -34.788700 -23.995899 17.224199
v 37.574001 -17.643801 18.000000
v 35.704700 -16.537500 18.000000
v 42.286201 15.390900 12.000000
v 42.286201 15.390900 15.000000
v 7.814170 -44.316299 12.000000
v 22.500000 -38.971100 15.000000
v 7.814170 -44.316299 15.000000
v 22.500000 -38.971100 12.000000
v 38.000000 0.000000 0.000000
v 35.708302 12.996800 0.000000
v 42.286201 -15.390900 12.000000
v 35.708302 -12.996800 0.000000
v 42.286201 -15.390900 15.000000
v 32.173901 26.997101 18.000000
v 19.000000 -32.909000 0.000000
v -39.467098 -14.364800 18.000000
v -45.000000 0.000000 15.000000
v -42.286201 -15.390900 15.000000
v 29.109699 -24.425900 0.000000
v 34.472000 -28.925400 15.000000
v 34.472000 -28.925400 12.000000
v 21.000000 -36.373100 18.000000
v -29.109699 -24.425900 0.000000
v -34.472000 -28.925400 12.000000
v -7.814170 -44.316299 15.000000
v 6.598630 -37.422699 0.000000
v -42.286201 -15.390900 12.000000
v -45.000000 0.000000 12.000000
v -7.814170 -44.316299 12.000000
v -19.000000 -32.909000 0.000000
v -6.598630 -37.422699 0.000000
v -7.814170 44.316299 12.000000
v -7.814170 44.316299 15.000000
v 29.109699 24.425900 0.000000
v 19.000000 32.909000 0.000000
v 22.500000 38.971100 12.000000
v 7.814170 44.316299 12.000000
v 32.173901 -26.997101 18.000000
v 6.598630 37.422699 0.000000
v -6.598630 37.422699 0.000000
v -19.000000 32.909000 0.000000
v -29.109699 24.425900 0.000000
v -35.708302 -12.996800 0.000000
v -35.708302 12.996800 0.000000
v -38.000000 0.000000 0.000000
v -34.472000 -28.925400 15.000000
v -42.286201 15.390900 15.000000
v -39.467098 14.364800 18.000000
v -34.472000 28.925400 12.000000
v 34.472000 28.925400 12.000000
v 22.500000 38.971100 15.000000
v 34.472000 28.925400 15.000000
v 7.814170 44.316299 15.000000
v 7.293220 -41.361900 18.000000
v 21.000000 36.373100 18.000000
v 7.293220 41.361900 18.000000
v -42.000000 0.000000 18.000000
v -42.286201 15.390900 12.000000
v -34.472000 28.925400 15.000000
vn -0.7522 -0.2024 0.6271
vn -0.4534 0.7660 0.4557
vn -0.4534 0.7661 0.4556
vn 0.8288 0.2024 -0.5216
vn 0.5735 -0.7660 -0.2904
vn -0.7522 -0.2024 0.6270
vn 0.5735 0.7660 -0.2904
vn 0.5878 0.0000 0.8090
vn 0.5734 -0.7660 -0.2904
vn -0.7522 0.2024 0.6271
vn -0.7522 0.2024 0.6270
vn 0.8288 -0.2024 -0.5216
vn -0.2939 0.5090 0.8090
vn -0.5897 0.6166 -0.5216
vn -0.5896 0.6166 -0.5216
vn 0.8901 -0.0096 0.4557
vn -0.9501 0.1136 -0.2904
vn -0.9501 0.1137 -0.2905
vn -0.9502 0.1136 -0.2904
vn 0.3767 0.8796 -0.2904
vn 0.3768 0.8796 -0.2903
vn -0.4367 -0.7757 0.4556
vn -0.4367 -0.7757 0.4557
vn 0.2009 -0.7526 0.6270
vn 0.5514 -0.5503 0.6271
vn -0.2391 0.8190 -0.5216
vn 0.7953 0.6062 0.0000
vn -0.4368 -0.7757 0.4556
vn 0.2009 -0.7526 0.6271
vn 0.3767 0.8797 -0.2904
vn 0.5514 -0.5503 0.6270
vn 0.3767 -0.8796 -0.2904
vn 0.3768 -0.8796 -0.2903
vn -0.2939 -0.5090 0.8090
vn -0.2391 -0.8190 -0.5216
vn 0.2009 0.7526 0.6271
vn 0.8901 0.0096 0.4557
vn -0.4367 0.7757 0.4557
vn -0.4367 0.7757 0.4556
vn -0.9501 -0.1136 -0.2904
vn -0.9502 -0.1136 -0.2904
vn 0.5514 0.5503 0.6270
vn 0.3767 -0.8797 -0.2904
vn -0.4368 0.7757 0.4556
vn -0.5897 -0.6166 -0.5216
vn 0.5514 0.5503 0.6271
vn -0.9501 -0.1137 -0.2905
vn 0.2009 0.7526 0.6270
vn -0.4534 -0.7661 0.4556
vn -0.4534 -0.7660 0.4557
vn 0.9848 0.1736 0.0000
vn 0.3420 -0.9397 0.0000
vn 0.8539 0.1506 -0.4981
vn 0.8539 0.1505 -0.4981
vn 0.8539 -0.1506 -0.4981
vn 0.7016 -0.1237 0.7017
vn 0.6170 0.3561 0.7017
vn 0.6171 0.3563 0.7016
vn 0.6170 0.3562 0.7017
vn 0.6170 0.3563 0.7017
vn 0.2966 -0.8148 -0.4981
vn 0.7016 0.1237 0.7017
vn -0.7017 -0.1237 0.7017
vn 0.5574 -0.6642 -0.4981
vn 0.8660 -0.5000 0.0000
vn 0.2437 -0.6695 0.7017
vn -0.5574 -0.6642 -0.4981
vn -0.2437 -0.6696 0.7016
vn -0.9848 -0.1736 0.0000
vn -0.2966 -0.8148 -0.4981
vn 0.0000 -0.8671 -0.4981
vn -0.3420 0.9397 0.0000
vn 0.5574 0.6642 -0.4981
vn 0.2966 0.8148 -0.4981
vn 0.7509 -0.4336 -0.4981
vn 0.8539 -0.1505 -0.4981
vn 0.4580 -0.5458 0.7017
vn -0.3420 -0.9397 -0.0000
vn 0.0000 0.0000 -1.0000
vn -0.7509 -0.4336 -0.4981
vn -0.6428 -0.7660 0.0000
vn 0.0000 -1.0000 0.0000
vn -0.8539 -0.1506 -0.4981
vn -0.7017 0.1237 0.7017
vn -0.5574 0.6642 -0.4981
vn 0.6428 0.7660 0.0000
vn 0.3420 0.9397 0.0000
vn 0.0000 0.8671 -0.4981
vn 0.8660 0.5000 0.0000
vn 0.6170 -0.3563 0.7017
vn 0.6428 -0.7660 0.0000
vn -0.8660 -0.5000 0.0000
vn -0.6170 -0.3563 0.7017
vn -0.6171 -0.3562 0.7016
vn -0.6170 -0.3562 0.7017
vn -0.4580 -0.5458 0.7017
vn -0.2435 -0.6696 0.7017
vn -0.2436 -0.6696 0.7017
vn 0.0000 -0.7125 0.7017
vn -0.0000 0.0000 1.0000
vn -0.8539 0.1506 -0.4981
vn -0.6428 0.7660 0.0000
vn -0.2435 0.6696 0.7017
vn -0.2436 0.6696 0.7017
vn 0.0000 0.7125 0.7017
vn 0.0000 1.0000 0.0000
vn 0.7509 0.4336 -0.4981
vn -0.4580 -0.5459 0.7016
vn -0.6173 -0.3566 0.7013
vn -0.4580 0.5458 0.7017
vn -0.9848 0.1736 0.0000
vn -0.6173 0.3566 0.7013
vn -0.6170 0.3562 0.7017
vn -0.6170 0.3563 0.7017
vn -0.6171 0.3562 0.7016
vn -0.2966 0.8148 -0.4981
vn 0.2437 0.6695 0.7017
vn 0.9848 -0.1736 0.0000
vn 0.6170 -0.3561 0.7017
vn 0.6171 -0.3563 0.7016
vn 0.6170 -0.3562 0.7017
vn -0.2437 0.6696 0.7016
vn -0.4580 0.5459 0.7016
vn -0.7509 0.4336 -0.4981
vn -0.8660 0.5000 0.0000
vn 0.8561 0.5169 0.0000
vn 0.4580 0.5458 0.7017
s off
f 1//1 2//1 3//1
f 2//1 1//1 4//1
f 5//2 6//2 7//2
f 5//3 7//3 8//3
f 9//4 10//4 11//4
f 10//4 9//4 12//4
f 11//4 13//4 14//4
f 13//4 11//4 10//4
f 15//5 16//5 17//5
f 18//5 16//5 15//5
f 16//5 18//5 19//5
f 3//6 20//6 1//6
f 11//7 21//7 22//7
f 11//7 23//7 21//7
f 23//7 11//7 14//7
f 22//7 5//7 11//7
f 5//7 22//7 6//7
f 11//8 5//8 9//8
f 9//8 24//8 16//8
f 17//9 24//9 25//9
f 24//5 17//5 16//5
f 24//8 3//8 2//8
f 26//10 27//10 28//10
f 27//10 26//10 3//10
f 26//11 20//11 3//11
f 16//12 29//12 30//12
f 29//12 16//12 19//12
f 9//12 30//12 12//12
f 30//12 9//12 16//12
f 5//8 3//8 24//8
f 5//8 24//8 9//8
f 27//8 3//8 5//8
f 8//2 27//2 5//2
f 27//2 8//2 28//2
f 31//13 32//13 33//13
f 34//13 32//13 35//13
f 33//14 36//14 31//14
f 36//15 33//15 37//15
f 31//14 38//14 39//14
f 31//14 40//14 38//14
f 40//14 31//14 36//14
f 41//16 42//16 43//16
f 42//16 41//16 44//16
f 45//17 32//17 31//17
f 46//17 32//17 45//17
f 32//18 46//18 47//18
f 48//17 31//17 39//17
f 49//17 31//17 48//17
f 50//17 31//17 49//17
f 31//19 50//19 45//19
f 51//20 41//20 43//20
f 41//21 51//21 52//21
f 32//22 47//22 53//22
f 32//23 53//23 54//23
f 55//24 34//24 35//24
f 34//24 55//24 56//24
f 33//13 34//13 41//13
f 34//13 33//13 32//13
f 57//25 58//25 59//25
f 58//16 44//16 41//16
f 44//16 58//16 57//16
f 60//26 61//26 62//26
f 61//26 60//26 63//26
f 63//26 33//26 61//26
f 64//26 33//26 63//26
f 33//27 64//27 37//27
f 54//23 35//23 32//23
f 35//28 54//28 65//28
f 55//29 35//29 65//29
f 52//20 61//20 41//20
f 66//30 61//30 52//30
f 67//20 61//20 66//20
f 61//20 67//20 62//20
f 61//13 33//13 41//13
f 41//13 34//13 58//13
f 34//31 59//31 58//31
f 59//31 34//31 56//31
f 68//32 69//32 70//32
f 69//33 68//33 71//33
f 72//34 73//34 68//34
f 74//35 75//35 76//35
f 74//35 77//35 75//35
f 76//35 78//35 79//35
f 78//35 76//35 75//35
f 80//36 81//36 82//36
f 83//37 68//37 70//37
f 68//37 83//37 84//37
f 85//38 86//38 87//38
f 86//39 85//39 88//39
f 89//40 90//40 91//40
f 92//41 89//41 93//41
f 90//40 89//40 92//40
f 89//40 91//40 94//40
f 73//42 95//42 96//42
f 95//42 73//42 72//42
f 68//34 74//34 76//34
f 76//32 71//32 68//32
f 76//43 97//43 71//43
f 76//32 98//32 97//32
f 98//32 76//32 79//32
f 73//34 74//34 68//34
f 74//34 73//34 86//34
f 87//44 81//44 80//44
f 81//38 87//38 86//38
f 99//45 89//45 94//45
f 100//45 89//45 99//45
f 89//45 100//45 101//45
f 101//45 74//45 89//45
f 74//45 101//45 77//45
f 72//37 84//37 102//37
f 84//37 72//37 68//37
f 95//46 72//46 102//46
f 86//40 103//40 93//40
f 103//47 86//47 88//47
f 86//40 93//40 89//40
f 74//34 86//34 89//34
f 81//34 86//34 73//34
f 82//48 73//48 96//48
f 73//48 82//48 81//48
f 104//49 2//49 105//49
f 2//50 104//50 24//50
f 24//50 104//50 25//50
f 2//50 4//50 105//50
f 23//51 106//51 107//51
f 14//51 106//51 23//51
f 106//51 14//51 13//51
f 108//52 109//52 110//52
f 109//52 108//52 111//52
f 10//53 106//53 13//53
f 112//54 10//54 12//54
f 10//53 112//53 106//53
f 112//53 113//53 106//53
f 114//55 115//55 112//55
f 18//56 15//56 116//56
f 107//57 22//57 21//57
f 107//58 6//58 22//58
f 6//59 117//59 7//59
f 117//60 6//60 107//60
f 111//61 108//61 118//61
f 107//62 21//62 23//62
f 119//63 120//63 121//63
f 111//64 118//64 122//64
f 123//65 114//65 116//65
f 114//65 123//65 124//65
f 125//66 110//66 109//66
f 126//67 99//67 127//67
f 99//67 126//67 100//67
f 97//68 98//68 128//68
f 108//61 129//61 118//61
f 130//69 120//69 131//69
f 120//69 130//69 121//69
f 75//70 132//70 78//70
f 133//70 75//70 77//70
f 75//70 133//70 132//70
f 134//71 108//71 132//71
f 108//71 134//71 129//71
f 135//72 67//72 136//72
f 67//72 135//72 62//72
f 62//72 135//72 60//72
f 137//73 138//73 139//73
f 138//74 140//74 139//74
f 124//75 122//75 114//75
f 30//76 112//76 12//76
f 114//55 30//55 29//55
f 30//55 114//55 112//55
f 141//77 125//77 123//77
f 132//78 98//78 79//78
f 98//78 132//78 128//78
f 132//78 79//78 78//78
f 124//64 111//64 122//64
f 115//79 113//79 112//79
f 122//79 113//79 115//79
f 122//79 137//79 113//79
f 118//79 137//79 122//79
f 118//79 138//79 137//79
f 129//79 138//79 118//79
f 129//79 142//79 138//79
f 134//79 142//79 129//79
f 134//79 143//79 142//79
f 133//79 143//79 134//79
f 133//79 144//79 143//79
f 126//79 144//79 133//79
f 126//79 145//79 144//79
f 146//79 145//79 126//79
f 146//79 147//79 145//79
f 147//79 146//79 148//79
f 126//80 130//80 146//80
f 126//67 101//67 100//67
f 101//67 126//67 77//67
f 133//67 77//67 126//67
f 149//81 94//81 91//81
f 127//81 94//81 149//81
f 94//81 127//81 99//81
f 132//82 110//82 128//82
f 110//82 132//82 108//82
f 130//83 131//83 148//83
f 146//83 130//83 148//83
f 150//84 120//84 151//84
f 145//85 38//85 40//85
f 38//85 145//85 152//85
f 153//86 154//86 155//86
f 154//86 153//86 139//86
f 139//87 156//87 154//87
f 156//87 139//87 140//87
f 142//88 135//88 140//88
f 135//88 142//88 143//88
f 107//89 153//89 155//89
f 153//89 107//89 106//89
f 137//73 139//73 153//73
f 116//90 141//90 123//90
f 111//91 123//91 109//91
f 123//91 111//91 124//91
f 114//75 122//75 115//75
f 127//80 130//80 126//80
f 127//92 121//92 130//92
f 121//92 127//92 149//92
f 132//70 133//70 134//70
f 93//93 149//93 92//93
f 103//94 149//94 93//94
f 149//95 103//95 121//95
f 92//96 149//96 90//96
f 71//97 128//97 69//97
f 128//98 71//98 97//98
f 70//99 157//99 83//99
f 128//99 70//99 69//99
f 70//99 128//99 110//99
f 70//99 110//99 157//99
f 117//100 8//100 7//100
f 117//100 28//100 8//100
f 158//100 28//100 117//100
f 57//100 28//100 158//100
f 28//100 57//100 26//100
f 105//100 141//100 104//100
f 4//100 141//100 105//100
f 102//100 4//100 1//100
f 95//100 1//100 20//100
f 4//100 125//100 141//100
f 59//100 26//100 57//100
f 57//100 158//100 159//100
f 26//100 59//100 20//100
f 44//100 159//100 42//100
f 57//100 159//100 44//100
f 56//100 20//100 59//100
f 157//100 84//100 83//100
f 125//100 102//100 157//100
f 157//100 102//100 84//100
f 1//100 95//100 102//100
f 4//100 102//100 125//100
f 96//100 20//100 56//100
f 20//100 96//100 95//100
f 55//100 96//100 56//100
f 55//100 82//100 96//100
f 65//100 82//100 55//100
f 65//100 80//100 82//100
f 151//100 65//100 54//100
f 65//100 160//100 80//100
f 151//100 54//100 53//100
f 65//100 151//100 160//100
f 119//100 80//100 160//100
f 80//100 119//100 87//100
f 87//100 119//100 85//100
f 148//101 161//101 147//101
f 39//102 162//102 48//102
f 39//102 152//102 162//102
f 152//102 39//102 38//102
f 136//103 52//103 51//103
f 52//104 136//104 66//104
f 159//105 43//105 42//105
f 156//105 43//105 159//105
f 136//105 43//105 156//105
f 43//105 136//105 51//105
f 140//106 136//106 156//106
f 136//106 140//106 135//106
f 138//74 142//74 140//74
f 106//107 137//107 153//107
f 113//107 137//107 106//107
f 123//77 125//77 109//77
f 90//108 149//108 91//108
f 85//95 119//95 88//95
f 121//95 88//95 119//95
f 88//109 121//109 103//109
f 125//66 157//66 110//66
f 49//110 162//110 50//110
f 151//84 120//84 160//84
f 160//63 120//63 119//63
f 131//111 150//111 161//111
f 150//111 131//111 120//111
f 148//101 131//101 161//101
f 150//112 47//112 46//112
f 47//113 150//113 151//113
f 53//113 47//113 151//113
f 162//114 45//114 50//114
f 162//115 46//115 45//115
f 46//113 162//113 150//113
f 143//116 144//116 135//116
f 155//60 117//60 107//60
f 154//117 156//117 158//117
f 114//118 18//118 116//118
f 19//118 114//118 29//118
f 18//118 114//118 19//118
f 17//119 116//119 15//119
f 25//120 116//120 17//120
f 25//90 141//90 116//90
f 141//121 25//121 104//121
f 136//122 67//122 66//122
f 48//123 162//123 49//123
f 147//124 161//124 145//124
f 145//124 161//124 152//124
f 161//125 162//125 152//125
f 162//125 161//125 150//125
f 64//126 144//126 37//126
f 145//85 37//85 144//85
f 37//85 145//85 36//85
f 36//85 145//85 40//85
f 135//116 63//116 60//116
f 144//116 63//116 135//116
f 63//116 144//116 64//116
f 155//127 158//127 117//127
f 154//127 158//127 155//127
f 156//117 159//117 158//117
